<?xml version="1.0" encoding="utf-8"?>
<!-- Generator: Adobe Illustrator 22.0.1, SVG Export Plug-In . SVG Version: 6.00 Build 0)  -->
<svg version="1.1" xmlns="http://www.w3.org/2000/svg" xmlns:xlink="http://www.w3.org/1999/xlink" x="0px" y="0px"
	 viewBox="0 0 1400 1000" style="enable-background:new 0 0 1400 1000;" xml:space="preserve">
<style type="text/css">
	.st0{fill:#F0FFFC;}
	.st1{fill:#C1EEE8;}
	.st2{fill:#99DDD2;}
	.st3{fill:#FDFEFF;}
	.st4{fill:#4BBEBE;}
	.st5{fill:#F78D46;}
	.st6{fill:#511E07;}
	.st7{fill:#FAB47C;}
	.st8{fill:#FFFFFF;}
	.st9{fill:#EFEFEF;}
	.st10{fill:none;stroke:#566867;stroke-width:10;stroke-miterlimit:10;}
	.st11{fill:#80E1DE;}
	.st12{fill:#75C8CA;}
	.st13{fill:#9CB0AF;}
	.st14{fill:#566867;}
	.st15{fill:#4A4742;}
</style>
<g id="BACKGROUND">
	<rect class="st0" width="1400" height="1000"/>
</g>
<g id="OBJECT">
	<g>
		<circle class="st1" cx="1101.3" cy="324.1" r="42.6"/>
		<g>
			<path class="st1" d="M1211.2,813.3c12-43.9,18.4-90,18.4-137.7c0-287.3-232.9-520.2-520.2-520.2S189.2,388.3,189.2,675.6
				c0,47.7,6.4,93.8,18.4,137.7H1211.2z"/>
			<g>
				<path class="st2" d="M248.3,646.4c0,0-102.7-19.1-93-56.6c9.7-37.5,58.7-6,65.7-20.9c7-14.8-97.4-33.6-103.7-59.4
					c-6.3-25.8,55.1-27.4,55.1-27.4s-95.2-90.3-50.2-130.4c45-40.1,113.2,79.9,115.1,94.3s-3.7-75.2,34.9-60.8
					c20.6,7.7,22.6,121,35,109.4c12.4-11.6,13.9-59.5,40.1-42.7c26.2,16.7,32.3,171.4,7.4,192C329.9,664.4,248.3,646.4,248.3,646.4z
					"/>
				<path class="st3" d="M346.9,639c-0.4-0.5-43.5-50.2-88.6-104.1c-60.6-72.4-95.8-117.4-104.6-133.9l2.4-1.3
					c20.7,38.9,191.1,235.5,192.9,237.5L346.9,639z"/>
				<path class="st3" d="M250.7,524.1l-96.5-13.7l0.4-2.6l93.9,13.3c5.9-37.6,14.1-93.8,13.2-98.3l2.6-0.5
					c1.3,6.5-11.9,91-13.4,100.6L250.7,524.1z"/>
				<path class="st3" d="M325.7,612.9l-1,0.1c-22.6,2.8-131.2-14.8-135.8-15.5l0.4-2.6c1.1,0.2,109.7,17.8,134,15.6
					c1.7-10.4,16.4-98.9,14.4-114.6l2.6-0.3c2.1,17-13.9,112.3-14.6,116.4L325.7,612.9z"/>
			</g>
			<g>
				<path class="st1" d="M205.3,758.9c0,0-73.7,8.2-74.8-19.2c-1.1-27.5,38.6-16.2,40.3-27.7c1.7-11.5-73-2.7-82.6-18.9
					c-9.6-16.2,31.7-29.9,31.7-29.9s-83.3-41.6-61-78.1c22.3-36.5,93.3,30.9,97.6,40.2c4.3,9.3-18.1-50.2,11.2-48.4
					c15.6,0.9,40.3,77.4,46.3,67c6-10.4-2.8-43.2,18.4-37.3c21.2,5.9,57.3,109.7,44.7,128.7C264.4,754.3,205.3,758.9,205.3,758.9z"
					/>
				<path class="st3" d="M270.6,733.6c-0.4-0.2-39.9-25.1-81.6-52.3c-56.1-36.6-89.2-59.9-98.6-69.3l1.3-1.3
					C113.8,632.7,270.1,731,271.7,732L270.6,733.6z"/>
				<path class="st3" d="M181.6,675.4L113.3,686l-0.3-1.9l66.5-10.3c-3.8-26.7-9.8-66.6-11.3-69.5l1.7-0.9
					c2.2,4.1,10.7,64.2,11.7,71L181.6,675.4z"/>
				<path class="st3" d="M250.9,720.2l-0.6,0.3c-14.7,6.6-92.1,17-95.3,17.5l-0.3-1.9c0.8-0.1,78.1-10.5,94.2-17.1
					c-1-7.4-9.3-70.5-13.9-80.8l1.7-0.8c5,11.1,13.7,79.1,14.1,82L250.9,720.2z"/>
			</g>
			<g>
				<path class="st2" d="M1151.7,646.4c0,0,102.7-19.1,93-56.6c-9.7-37.5-58.7-6-65.7-20.9c-7-14.8,97.4-33.6,103.7-59.4
					c6.3-25.8-55.1-27.4-55.1-27.4s95.2-90.3,50.2-130.4c-45-40.1-113.2,79.9-115.1,94.3c-1.9,14.3,3.7-75.2-34.9-60.8
					c-20.6,7.7-22.6,121-35,109.4c-12.4-11.6-13.9-59.5-40.1-42.7c-26.2,16.7-32.3,171.4-7.4,192
					C1070.1,664.4,1151.7,646.4,1151.7,646.4z"/>
				<path class="st3" d="M1053.1,639c0.4-0.5,43.5-50.2,88.6-104.1c60.6-72.4,95.8-117.4,104.6-133.9l-2.4-1.3
					c-20.7,38.9-191.1,235.5-192.9,237.5L1053.1,639z"/>
				<path class="st3" d="M1149.3,524.1l96.5-13.7l-0.4-2.6l-93.9,13.3c-5.9-37.6-14.1-93.8-13.2-98.3l-2.6-0.5
					c-1.3,6.5,11.9,91,13.4,100.6L1149.3,524.1z"/>
				<path class="st3" d="M1074.3,612.9l1,0.1c22.6,2.8,131.2-14.8,135.8-15.5l-0.4-2.6c-1.1,0.2-109.7,17.8-134,15.6
					c-1.7-10.4-16.4-98.9-14.4-114.6l-2.6-0.3c-2.1,17,13.9,112.3,14.6,116.4L1074.3,612.9z"/>
			</g>
			<g>
				<path class="st1" d="M1194.7,758.9c0,0,73.7,8.2,74.8-19.2c1.1-27.5-38.6-16.2-40.3-27.7c-1.7-11.5,73-2.7,82.6-18.9
					c9.6-16.2-31.7-29.9-31.7-29.9s83.3-41.6,61-78.1c-22.3-36.5-93.3,30.9-97.6,40.2c-4.3,9.3,18.1-50.2-11.2-48.4
					c-15.6,0.9-40.3,77.4-46.3,67c-6-10.4,2.8-43.2-18.4-37.3c-21.2,5.9-57.3,109.7-44.7,128.7
					C1135.6,754.3,1194.7,758.9,1194.7,758.9z"/>
				<path class="st3" d="M1129.4,733.6c0.4-0.2,39.9-25.1,81.6-52.3c56.1-36.6,89.2-59.9,98.6-69.3l-1.3-1.3
					c-22.1,22.1-178.3,120.4-179.9,121.3L1129.4,733.6z"/>
				<path class="st3" d="M1218.4,675.4l68.3,10.6l0.3-1.9l-66.5-10.3c3.8-26.7,9.8-66.6,11.3-69.5l-1.7-0.9
					c-2.2,4.1-10.7,64.2-11.7,71L1218.4,675.4z"/>
				<path class="st3" d="M1149.1,720.2l0.6,0.3c14.7,6.6,92.1,17,95.3,17.5l0.3-1.9c-0.8-0.1-78.1-10.5-94.2-17.1
					c1-7.4,9.3-70.5,13.9-80.8l-1.7-0.8c-5,11.1-13.7,79.1-14.1,82L1149.1,720.2z"/>
			</g>
			<g>
				<path class="st4" d="M668.6,813.3l-34-127c-14-38.3-47.2-66.3-87.3-73.6l-76.8-14l0,0v0H371v0l-76.8,14
					c-40.1,7.3-73.3,35.3-87.3,73.6l-33.1,127H371v0h99.3v0l0,0H668.6z"/>
				<polygon class="st5" points="470.3,598.8 419.5,635.7 371,598.8 371,495 470.3,495 				"/>
				<path class="st6" d="M505.4,467.9c-40.4-3.9-91-31.6-91-31.6c-24,49.8-85.5,32.1-85.5,32.1s-28.5-50.7,10.7-96.3
					c35.8-41.7,72.5-34.5,80.9-28c0,0,27.2-23,61.9-0.4C551.2,388.3,505.4,467.9,505.4,467.9z"/>
				<path class="st7" d="M492.2,430.7v49.7c0,20-5.3,39.8-15.6,57c-11.1,18.5-29.4,35-58.8,36.3c-29.4-1.3-47.7-17.9-58.8-36.3
					c-10.3-17.2-15.6-36.9-15.6-57v-44.6c0,0,59.1-16.3,77.4-48.4C420.8,387.4,445.5,419.1,492.2,430.7z"/>
				<circle class="st7" cx="339.8" cy="473.2" r="20.9"/>
				<circle class="st7" cx="495.7" cy="473.2" r="20.9"/>
				<path class="st4" d="M475.3,497.8c-17.5-6-39.1-7.8-51.5-8.3v-0.2c0,0-1.9,0-5,0c-3.2-0.1-5,0-5,0v0.2
					c-12.4,0.5-34,2.3-51.5,8.3c0,0-1.7,39.1,19.8,49.2c0,0,12.7,8.5,31.7,9.9v0c1.7,0.1,3.4,0.2,5,0.2c1.6,0,3.3,0,5-0.2v0
					c19-1.4,31.7-9.9,31.7-9.9C477,536.9,475.3,497.8,475.3,497.8z"/>
				<path class="st4" d="M363.6,503.7c-5.7-14.6-17-42.5-21.6-50.3c-0.5-0.8-0.3-1.8,0.5-2.4l0,0c0.9-0.7,2.1-0.4,2.7,0.5
					c6.1,10.5,21.2,49,21.9,50.8L363.6,503.7z"/>
				<path class="st4" d="M389.1,550.4c-23.4-9.6-35.3-24.4-41.2-35.1c-6.4-11.7-7.2-20.8-7.2-21.2l3.7-0.6c0,0.4,3.4,36.1,46.1,53.5
					L389.1,550.4z"/>
				<path class="st4" d="M473.2,503.7l-3.4-1.3c0.7-1.7,15.7-40.3,21.9-50.8c0.6-0.9,1.8-1.2,2.7-0.5l0,0c0.7,0.6,0.9,1.6,0.5,2.4
					C490.2,461.3,478.9,489.1,473.2,503.7z"/>
				<path class="st4" d="M446.6,550.4l-1.4-3.4c22.3-9.1,33.7-23.2,39.3-33.4c6.1-11.1,6.9-20.1,6.9-20.2l3.7,0.3
					c0,0.4-0.8,9.8-7.2,21.5C481.9,526,470,540.8,446.6,550.4z"/>
			</g>
			<path class="st1" d="M1254.8,811.8H140.2c-8.6,0-15.5,6.9-15.5,15.5v1.8c0,8.6,6.9,15.5,15.5,15.5h1114.6
				c8.6,0,15.5-6.9,15.5-15.5v-1.8C1270.3,818.7,1263.3,811.8,1254.8,811.8z"/>
			<g>
				<path id="XMLID_55_" class="st4" d="M1070.8,378.1l2-17.5v0c-5.2-39.6-31.6-68.5-62.6-68.5h-36.4c-31,0-57.4,28.9-62.6,68.5l0,0
					l2,17.5H1070.8z"/>
				<path class="st6" d="M1109.6,485.5c-22.9-29.7-4.9-13.2-25.6-84.3c-20-68.8-88.7-68-93.1-67.8c-4.4-0.1-73.1-1-93.1,67.8
					c-20.6,71.1-2.7,54.6-25.6,84.3c-22.9,29.7-1.5,81.8,14.8,97.5c26.5,25.4,15.7,44.3,15.7,44.3s56.5,0.9,86.2-35.3h4
					c29.6,36.3,86.2,35.3,86.2,35.3s-10.8-18.8,15.7-44.3C1111.2,567.3,1132.5,515.2,1109.6,485.5z"/>
				<path class="st4" d="M1238.7,813.3l-34-127c-14-38.3-47.2-66.3-87.3-73.6l-76.8-14l0,0v0h-99.3v0l-76.8,14
					C824.2,620,791,648,777,686.3l-33.1,127h197.2v0h99.3v0l0,0H1238.7z"/>
				<polygon class="st5" points="1040.4,598.8 989.6,641.8 941.1,598.8 941.1,495 1040.4,495 				"/>
				<path class="st7" d="M1062.3,436.4v44c0,20-5.3,39.8-15.6,57c-11.1,18.5-29.4,35-58.8,36.3c-29.4-1.3-47.7-17.9-58.8-36.3
					c-10.3-17.2-15.6-36.9-15.6-57v-44.6h62.3l11.4-19.5l9.6,18.3L1062.3,436.4z"/>
				<circle class="st7" cx="909.9" cy="473.2" r="20.9"/>
				<circle class="st7" cx="1065.8" cy="473.2" r="20.9"/>
				<g>
					<polygon class="st8" points="1005.5,310.6 996.6,310.6 996.6,301.7 987.4,301.7 987.4,310.6 978.5,310.6 978.5,319.7 
						987.4,319.7 987.4,328.7 996.6,328.7 996.6,319.7 1005.5,319.7 					"/>
				</g>
			</g>
			<g>
				<g>
					<path class="st9" d="M641.8,813.3V598.8l-76.8,14c-40.1,7.3-73.3,35.3-87.3,73.6l-33.1,127H641.8z"/>
					<path class="st9" d="M741.1,813.3V598.8l76.8,14c40.1,7.3,73.3,35.3,87.3,73.6l34,127H741.1z"/>
					<path class="st10" d="M765.4,701.7v-57.4c0-41.7-33.8-75.5-75.5-75.5h0c-41.7,0-75.5,33.8-75.5,75.5v15.3"/>
					<rect x="641.8" y="598.8" class="st4" width="99.3" height="214.6"/>
					<polygon class="st5" points="741,598.8 690.3,635.7 641.8,598.8 641.8,495 741,495 					"/>
					<path class="st6" d="M598.9,469.9c0,0-18.7-103.9,25.9-101.8c0,0,14.7-47,85.5-41.9c0,0,30.1,2.1,49.7,19.1
						c21,18.3,47,20.4,49.7,0c0,0,21.7,49.7-23,58.7c0,0,1.3,63.1-10.2,81L598.9,469.9z"/>
					<path class="st7" d="M766.5,416.5v64.4c0,20-5.3,39.8-15.6,57c-11.1,18.5-29.4,35-58.8,36.3c-29.4-1.3-47.7-17.9-58.8-36.3
						c-10.3-17.2-15.6-36.9-15.6-57v-44.6c0,0,18.6-15.1,25.9-28.1C643.6,408.2,720.9,439.1,766.5,416.5z"/>
					<circle class="st7" cx="614.1" cy="473.7" r="20.9"/>
					<circle class="st7" cx="770" cy="473.7" r="20.9"/>
					<polygon class="st11" points="690.3,635.7 641.8,664 641.8,598.8 					"/>
					<polygon class="st11" points="741.1,600 741.1,664.3 690.2,635.7 740.8,598.8 					"/>
					<rect x="687.8" y="643.8" class="st12" width="3.1" height="169.5"/>
					<g>
						<circle class="st13" cx="765.3" cy="715.2" r="24.5"/>
						<circle class="st14" cx="765.3" cy="715.2" r="13.2"/>
					</g>
					<g>
						<path class="st10" d="M586.1,753.3C586.1,753.3,586.1,753.3,586.1,753.3c-10.2,0.5-18.8-7.6-18.8-17.9v-29.1
							c0-26.1,21.2-47.3,47.3-47.3h0c26.1,0,47.3,21.2,47.3,47.3v29.4c0,9.9-8,17.9-17.9,17.9h-3.9"/>
						<ellipse class="st15" cx="591.1" cy="753.1" rx="7.8" ry="15.1"/>
						<ellipse class="st15" cx="640.5" cy="753.1" rx="7.8" ry="15.1"/>
					</g>
				</g>
				<path class="st6" d="M769.5,445.3c-41.6-12.3-58-2.5-63.2,2.4c-1.5,1.4-2.1,2.5-2.1,2.5s-0.4-0.3-1.1-0.8
					c-5.9-3.7-13.4-3.7-19.3,0c-0.7,0.4-1.1,0.8-1.1,0.8s-0.6-1-2.1-2.5c-5.2-5-21.6-14.7-63.2-2.4c-0.3,0.1-0.4,0.3-0.4,0.6v7.3
					c0,0.3,0.3,0.6,0.6,0.6c1.7,0,6.5,0.7,6.5,8.5c0,10,3.9,22.6,18.7,25.4c0,0,35.8,8.9,41-29.3c0,0,0.1-0.1,0.3-0.4
					c4.8-5.8,13.8-5.8,18.6,0c0.2,0.3,0.3,0.4,0.3,0.4c5.2,38.2,41,29.3,41,29.3c14.8-2.8,18.7-15.4,18.7-25.4
					c0-7.8,4.8-8.5,6.5-8.5c0.3,0,0.6-0.3,0.6-0.6v-7.3C770,445.6,769.8,445.4,769.5,445.3z M643.7,481.4
					c-15.2-2.3-13.8-22.7-12.9-29.5c0.2-1.3,1.1-2.4,2.4-2.9c25.1-7.9,37.4-1.7,42.5,2.9c2.3,2,3.2,3.7,3.2,3.7
					c-0.1,0.6-0.1,1.1-0.2,1.6C676,478.5,662.6,484.3,643.7,481.4z M743.3,481.4c-18.9,2.9-32.3-2.9-35.1-24.1
					c-0.1-0.5-0.1-1.1-0.2-1.6c0,0,0.9-1.7,3.2-3.7c5.2-4.6,17.4-10.8,42.5-2.9c1.3,0.4,2.2,1.5,2.4,2.9
					C757,458.7,758.5,479.1,743.3,481.4z"/>
			</g>
		</g>
		<circle class="st1" cx="314.8" cy="218.7" r="39.7"/>
		<circle class="st1" cx="488.4" cy="239.5" r="68"/>
		<circle class="st1" cx="1209.3" cy="296.6" r="28.2"/>
		<circle class="st1" cx="1177.7" cy="215.1" r="17.9"/>
		<circle class="st1" cx="1319.1" cy="527.6" r="16.8"/>
		<circle class="st1" cx="104" cy="781.3" r="16.8"/>
		<circle class="st1" cx="1303.9" cy="767.6" r="15.3"/>
	</g>
</g>
</svg>
